<?xml version="1.0" encoding="utf-8"?>
<!-- Generator: Adobe Illustrator 24.1.2, SVG Export Plug-In . SVG Version: 6.00 Build 0)  -->
<svg version="1.1" id="Capa_1" xmlns="http://www.w3.org/2000/svg" xmlns:xlink="http://www.w3.org/1999/xlink" x="0px" y="0px"
	 viewBox="0 0 120 120" style="enable-background:new 0 0 120 120;" xml:space="preserve">
<style type="text/css">
	.st0{fill-rule:evenodd;clip-rule:evenodd;fill:#FAB400;}
</style>
<g>
	<path class="st0" d="M96.47,65.31C91.9,44.78,76.51,22.27,53.39,2.89c18.1,31.6-25.07,50.91-26.26,79.58
		c0.07-0.21,0.14-0.42,0.22-0.63c5.58-14.64,21.97-21.99,36.62-16.41c14.64,5.58,21.99,21.97,16.41,36.62
		c-1.02,2.67-2.4,5.1-4.06,7.25C89.76,101.44,100.58,87.32,96.47,65.31z"/>
	<path class="st0" d="M54.58,70.77c-2.4-0.14-4.72,0.13-6.91,0.74c2.47,1.23,4.1,3.85,3.93,6.78c-0.23,3.92-3.59,6.92-7.51,6.69
		c-3.75-0.22-6.64-3.29-6.7-6.98c-2.99,3.42-4.9,7.82-5.18,12.7c-0.67,11.68,8.25,21.7,19.93,22.37
		c11.68,0.67,21.7-8.25,22.37-19.93C75.19,81.46,66.26,71.44,54.58,70.77z"/>
</g>
</svg>
