<?xml version="1.0" encoding="utf-8"?>
<!-- Generator: Adobe Illustrator 24.1.2, SVG Export Plug-In . SVG Version: 6.00 Build 0)  -->
<svg version="1.1" id="Capa_1" xmlns="http://www.w3.org/2000/svg" xmlns:xlink="http://www.w3.org/1999/xlink" x="0px" y="0px"
	 viewBox="0 0 120 45" style="enable-background:new 0 0 120 45;" xml:space="preserve">
<style type="text/css">
	.st0{fill-rule:evenodd;clip-rule:evenodd;fill:#FAB400;}
	.st1{fill:#FFFFFF;}
</style>
<g>
	<path class="st0" d="M29.94,24.3C28.31,16.96,22.8,8.9,14.53,1.97c6.48,11.31-8.97,18.21-9.39,28.47c0.03-0.07,0.05-0.15,0.08-0.22
		c2-5.24,7.86-7.87,13.1-5.87c5.24,2,7.87,7.86,5.87,13.1c-0.36,0.96-0.86,1.82-1.45,2.59C27.54,37.23,31.41,32.18,29.94,24.3z"/>
	<path class="st0" d="M14.96,26.26c-0.86-0.05-1.69,0.05-2.47,0.27c0.88,0.44,1.47,1.38,1.41,2.43c-0.08,1.4-1.28,2.48-2.69,2.4
		c-1.34-0.08-2.38-1.18-2.4-2.5c-1.07,1.22-1.75,2.8-1.85,4.54c-0.24,4.18,2.95,7.76,7.13,8c4.18,0.24,7.76-2.95,8-7.13
		C22.33,30.08,19.14,26.5,14.96,26.26z"/>
</g>
<g>
	<path class="st1" d="M41.43,25.91c0-0.91-0.06-1.04-0.51-1.16c-0.09-0.02-0.28-0.03-0.38-0.03c-0.05,0-0.09-0.02-0.09-0.07
		c0-0.07,0.06-0.09,0.18-0.09c0.51,0,1.22,0.03,1.27,0.03c0.06,0,0.76-0.03,1.1-0.03c0.12,0,0.18,0.02,0.18,0.09
		c0,0.05-0.04,0.07-0.09,0.07c-0.08,0-0.15,0.01-0.28,0.03c-0.3,0.06-0.39,0.25-0.42,0.64c-0.02,0.36-0.02,0.7-0.02,1.17v1.26
		c0,0.51-0.01,0.53-0.15,0.61c-0.72,0.38-1.73,0.51-2.39,0.51c-0.85,0-2.45-0.11-3.7-1.2c-0.69-0.6-1.34-1.8-1.34-3.21
		c0-1.8,0.88-3.07,1.88-3.7c1.01-0.63,2.13-0.71,2.99-0.71c0.71,0,1.51,0.15,1.72,0.19c0.24,0.06,0.63,0.1,0.91,0.11
		c0.11,0.01,0.14,0.06,0.14,0.1c0,0.16-0.08,0.47-0.08,1.6c0,0.18-0.02,0.24-0.1,0.24c-0.06,0-0.07-0.07-0.08-0.17
		c-0.01-0.16-0.07-0.47-0.24-0.74c-0.28-0.43-1.19-0.91-2.64-0.91c-0.71,0-1.55,0.07-2.41,0.74c-0.65,0.52-1.11,1.54-1.11,2.86
		c0,1.59,0.8,2.73,1.19,3.12c0.89,0.87,1.91,1.2,2.95,1.2c0.4,0,0.99-0.07,1.28-0.24c0.15-0.08,0.23-0.2,0.23-0.39V25.91z"/>
	<path class="st1" d="M45.81,24.31c0-1.49,0-1.76-0.02-2.06c-0.02-0.33-0.08-0.48-0.4-0.53c-0.08-0.01-0.25-0.02-0.34-0.02
		c-0.03,0-0.08-0.05-0.08-0.08c0-0.06,0.05-0.08,0.16-0.08c0.45,0,1.11,0.02,1.17,0.02c0.1,0,0.93-0.02,1.24-0.02
		c0.63,0,1.33,0.06,1.85,0.42c0.25,0.18,0.69,0.64,0.69,1.31c0,0.71-0.29,1.4-1.22,2.18c0.81,1.01,1.5,1.88,2.07,2.48
		c0.53,0.54,0.86,0.63,1.1,0.66c0.19,0.03,0.29,0.03,0.35,0.03c0.06,0,0.09,0.04,0.09,0.08c0,0.06-0.06,0.08-0.24,0.08h-0.62
		c-0.56,0-0.81-0.06-1.06-0.19c-0.43-0.22-0.79-0.69-1.35-1.41c-0.42-0.52-0.86-1.14-1.07-1.4c-0.04-0.04-0.07-0.06-0.13-0.06
		l-1.26-0.02c-0.05,0-0.07,0.02-0.07,0.08v0.23c0,0.92,0,1.67,0.04,2.06c0.03,0.28,0.09,0.46,0.39,0.51
		c0.13,0.02,0.35,0.05,0.44,0.05c0.07,0,0.08,0.04,0.08,0.08c0,0.04-0.04,0.08-0.16,0.08c-0.54,0-1.17-0.03-1.22-0.03
		c-0.01,0-0.67,0.03-0.98,0.03c-0.1,0-0.16-0.02-0.16-0.08c0-0.03,0.02-0.08,0.08-0.08c0.09,0,0.21-0.02,0.3-0.05
		c0.19-0.04,0.21-0.22,0.26-0.51c0.06-0.39,0.06-1.15,0.06-2.07V24.31z M46.67,25.12c0,0.06,0.02,0.09,0.07,0.12
		c0.15,0.08,0.65,0.15,1.09,0.15c0.24,0,0.51-0.01,0.74-0.17c0.34-0.23,0.6-0.73,0.6-1.46c0-1.19-0.65-1.88-1.71-1.88
		c-0.29,0-0.61,0.03-0.71,0.06c-0.05,0.02-0.08,0.06-0.08,0.11V25.12z"/>
	<path class="st1" d="M55.22,21.73c0.12-0.31,0.17-0.37,0.24-0.37c0.1,0,0.13,0.14,0.24,0.35c0.18,0.4,1.77,4.35,2.37,5.81
		c0.36,0.86,0.63,0.98,0.84,1.05c0.15,0.04,0.29,0.06,0.39,0.06c0.06,0,0.12,0.02,0.12,0.08c0,0.06-0.11,0.08-0.23,0.08
		c-0.15,0-0.88,0-1.56-0.02c-0.19-0.01-0.35-0.01-0.35-0.07c0-0.04,0.02-0.04,0.07-0.07c0.06-0.02,0.16-0.1,0.09-0.26l-0.89-2.19
		c-0.02-0.04-0.03-0.06-0.09-0.06h-2.28c-0.05,0-0.08,0.02-0.1,0.08l-0.56,1.53c-0.09,0.24-0.15,0.47-0.15,0.64
		c0,0.19,0.17,0.26,0.34,0.26h0.09c0.08,0,0.1,0.03,0.1,0.08c0,0.06-0.06,0.08-0.15,0.08c-0.24,0-0.78-0.03-0.89-0.03
		c-0.1,0-0.6,0.03-1,0.03c-0.12,0-0.19-0.02-0.19-0.08c0-0.05,0.04-0.08,0.09-0.08c0.07,0,0.21-0.01,0.29-0.02
		c0.45-0.06,0.64-0.39,0.83-0.88L55.22,21.73z M56.32,25.71c0.05,0,0.05-0.02,0.03-0.07l-0.98-2.62c-0.06-0.15-0.11-0.15-0.17,0
		l-0.92,2.62c-0.01,0.04,0,0.07,0.03,0.07H56.32z"/>
	<path class="st1" d="M61.92,26c0,0.92,0,1.68,0.05,2.07c0.03,0.28,0.07,0.46,0.36,0.51c0.15,0.02,0.36,0.05,0.45,0.05
		c0.06,0,0.08,0.04,0.08,0.08c0,0.04-0.05,0.08-0.16,0.08c-0.55,0-1.19-0.03-1.24-0.03c-0.06,0-0.67,0.03-0.98,0.03
		c-0.1,0-0.16-0.02-0.16-0.08c0-0.03,0.02-0.08,0.08-0.08c0.09,0,0.21-0.02,0.3-0.05c0.19-0.04,0.22-0.22,0.26-0.51
		c0.04-0.39,0.06-1.15,0.06-2.07v-1.69c0-1.49,0-1.76-0.02-2.06c-0.02-0.33-0.1-0.47-0.31-0.52c-0.11-0.02-0.24-0.03-0.3-0.03
		c-0.04,0-0.08-0.05-0.08-0.08c0-0.06,0.05-0.08,0.16-0.08c0.33,0,0.95,0.02,1,0.02c0.05,0,0.69-0.02,0.99-0.02
		c0.11,0,0.16,0.02,0.16,0.08c0,0.03-0.04,0.08-0.08,0.08c-0.07,0-0.13,0-0.25,0.02c-0.27,0.06-0.33,0.19-0.35,0.53
		c-0.01,0.3-0.01,0.57-0.01,2.06V26z"/>
	<path class="st1" d="M65.87,27.47c0.02,0.79,0.11,1.02,0.38,1.09c0.18,0.04,0.41,0.06,0.5,0.06c0.04,0,0.08,0.03,0.08,0.08
		c0,0.06-0.07,0.08-0.18,0.08c-0.56,0-0.96-0.03-1.05-0.03c-0.09,0-0.51,0.03-0.96,0.03c-0.1,0-0.16-0.01-0.16-0.08
		c0-0.05,0.03-0.08,0.08-0.08c0.08,0,0.26-0.01,0.4-0.06c0.25-0.07,0.28-0.33,0.28-1.19v-5.48c0-0.38,0.06-0.48,0.14-0.48
		c0.11,0,0.28,0.19,0.38,0.29c0.16,0.16,1.6,1.69,3.13,3.26c0.98,1.01,2.04,2.15,2.34,2.46l-0.1-4.79
		c-0.01-0.62-0.07-0.83-0.37-0.89c-0.18-0.03-0.4-0.04-0.48-0.04c-0.07,0-0.08-0.06-0.08-0.09c0-0.06,0.08-0.07,0.19-0.07
		c0.45,0,0.92,0.02,1.04,0.02c0.11,0,0.44-0.02,0.84-0.02c0.1,0,0.18,0.01,0.18,0.07c0,0.03-0.04,0.09-0.11,0.09
		c-0.05,0-0.12,0-0.24,0.02c-0.33,0.07-0.35,0.26-0.35,0.83l-0.02,5.6c0,0.63-0.01,0.69-0.08,0.69c-0.1,0-0.2-0.08-0.75-0.58
		c-0.1-0.09-1.53-1.5-2.58-2.59c-1.15-1.2-2.26-2.37-2.57-2.71L65.87,27.47z"/>
	<path class="st1" d="M77.81,27.4c0.65-1.51,2.16-5.43,2.41-6.25c0.06-0.17,0.1-0.33,0.1-0.43c0-0.09-0.03-0.2-0.15-0.26
		c-0.14-0.04-0.3-0.04-0.43-0.04c-0.07,0-0.12-0.01-0.12-0.07c0-0.07,0.07-0.09,0.25-0.09c0.45,0,0.97,0.03,1.1,0.03
		c0.07,0,0.55-0.03,0.88-0.03c0.12,0,0.19,0.02,0.19,0.08c0,0.06-0.04,0.08-0.13,0.08c-0.08,0-0.33,0-0.54,0.13
		c-0.15,0.1-0.32,0.29-0.62,1.06c-0.12,0.31-0.69,1.67-1.26,3.05c-0.69,1.64-1.19,2.86-1.45,3.41c-0.32,0.67-0.36,0.85-0.47,0.85
		c-0.14,0-0.19-0.16-0.41-0.7l-2.76-6.9c-0.25-0.63-0.42-0.75-0.81-0.87c-0.17-0.04-0.36-0.04-0.43-0.04
		c-0.07,0-0.09-0.03-0.09-0.08c0-0.07,0.11-0.08,0.29-0.08c0.54,0,1.18,0.03,1.32,0.03c0.11,0,0.62-0.03,1.05-0.03
		c0.2,0,0.3,0.02,0.3,0.08c0,0.06-0.03,0.08-0.11,0.08c-0.12,0-0.33,0.01-0.43,0.06c-0.12,0.06-0.15,0.15-0.15,0.23
		c0,0.15,0.13,0.49,0.3,0.93L77.81,27.4z"/>
	<path class="st1" d="M84.65,26c0,0.92,0,1.68,0.05,2.07c0.03,0.28,0.07,0.46,0.36,0.51c0.15,0.02,0.36,0.05,0.45,0.05
		c0.06,0,0.08,0.04,0.08,0.08c0,0.04-0.05,0.08-0.16,0.08c-0.55,0-1.19-0.03-1.24-0.03c-0.06,0-0.67,0.03-0.98,0.03
		c-0.1,0-0.16-0.02-0.16-0.08c0-0.03,0.02-0.08,0.08-0.08c0.09,0,0.21-0.02,0.3-0.05c0.19-0.04,0.22-0.22,0.26-0.51
		c0.04-0.39,0.06-1.15,0.06-2.07v-1.69c0-1.49,0-1.76-0.02-2.06c-0.02-0.33-0.1-0.47-0.31-0.52c-0.11-0.02-0.24-0.03-0.3-0.03
		c-0.04,0-0.08-0.05-0.08-0.08c0-0.06,0.05-0.08,0.16-0.08c0.33,0,0.95,0.02,1,0.02c0.05,0,0.69-0.02,0.99-0.02
		c0.11,0,0.16,0.02,0.16,0.08c0,0.03-0.05,0.08-0.08,0.08c-0.07,0-0.13,0-0.25,0.02c-0.27,0.06-0.33,0.19-0.35,0.53
		c-0.01,0.3-0.01,0.57-0.01,2.06V26z"/>
	<path class="st1" d="M87.57,28.64c-0.13-0.07-0.15-0.1-0.15-0.36c0-0.47,0.04-0.86,0.06-1.01c0-0.1,0.02-0.16,0.08-0.16
		s0.09,0.03,0.09,0.11c0,0.08,0,0.21,0.03,0.35c0.16,0.7,0.9,0.95,1.56,0.95c0.98,0,1.49-0.55,1.49-1.27c0-0.69-0.37-1.01-1.25-1.67
		l-0.45-0.34c-1.07-0.8-1.42-1.38-1.42-2.05c0-1.13,0.89-1.8,2.19-1.8c0.39,0,0.79,0.06,1.02,0.11c0.19,0.04,0.27,0.04,0.35,0.04
		c0.08,0,0.1,0.01,0.1,0.07c0,0.04-0.04,0.36-0.04,1.01c0,0.15-0.01,0.21-0.08,0.21s-0.08-0.04-0.09-0.12
		c-0.01-0.11-0.09-0.37-0.15-0.47c-0.07-0.11-0.39-0.47-1.28-0.47c-0.72,0-1.32,0.36-1.32,1.04c0,0.61,0.3,0.96,1.28,1.62l0.28,0.19
		c1.2,0.82,1.62,1.49,1.62,2.31c0,0.56-0.21,1.17-0.92,1.63c-0.42,0.27-1.04,0.34-1.58,0.34C88.55,28.9,87.98,28.83,87.57,28.64z"/>
	<path class="st1" d="M95.26,26c0,0.92,0,1.68,0.05,2.07c0.03,0.28,0.07,0.46,0.36,0.51c0.15,0.02,0.36,0.05,0.45,0.05
		c0.06,0,0.08,0.04,0.08,0.08c0,0.04-0.05,0.08-0.16,0.08c-0.55,0-1.19-0.03-1.24-0.03c-0.06,0-0.67,0.03-0.98,0.03
		c-0.1,0-0.16-0.02-0.16-0.08c0-0.03,0.02-0.08,0.08-0.08c0.09,0,0.21-0.02,0.3-0.05c0.19-0.04,0.22-0.22,0.26-0.51
		c0.04-0.39,0.06-1.15,0.06-2.07v-1.69c0-1.49,0-1.76-0.02-2.06c-0.02-0.33-0.1-0.47-0.31-0.52c-0.11-0.02-0.24-0.03-0.3-0.03
		c-0.04,0-0.08-0.05-0.08-0.08c0-0.06,0.05-0.08,0.16-0.08c0.33,0,0.95,0.02,1,0.02c0.05,0,0.69-0.02,0.99-0.02
		c0.11,0,0.16,0.02,0.16,0.08c0,0.03-0.04,0.08-0.08,0.08c-0.07,0-0.13,0-0.25,0.02c-0.27,0.06-0.33,0.19-0.35,0.53
		c-0.01,0.3-0.01,0.57-0.01,2.06V26z"/>
	<path class="st1" d="M101.67,21.4c2.23,0,3.92,1.36,3.92,3.59c0,2.14-1.59,3.91-3.97,3.91c-2.71,0-3.87-2.04-3.87-3.76
		C97.74,23.6,98.93,21.4,101.67,21.4z M101.89,28.51c0.89,0,2.68-0.47,2.68-3.24c0-2.3-1.4-3.5-2.96-3.5
		c-1.65,0-2.85,1.04-2.85,3.12C98.76,27.11,100.1,28.51,101.89,28.51z"/>
	<path class="st1" d="M108.35,27.47c0.02,0.79,0.11,1.02,0.38,1.09c0.18,0.04,0.41,0.06,0.5,0.06c0.04,0,0.08,0.03,0.08,0.08
		c0,0.06-0.07,0.08-0.18,0.08c-0.56,0-0.96-0.03-1.05-0.03c-0.09,0-0.51,0.03-0.96,0.03c-0.1,0-0.16-0.01-0.16-0.08
		c0-0.05,0.03-0.08,0.08-0.08c0.08,0,0.26-0.01,0.4-0.06c0.25-0.07,0.28-0.33,0.28-1.19v-5.48c0-0.38,0.06-0.48,0.14-0.48
		c0.11,0,0.28,0.19,0.38,0.29c0.16,0.16,1.6,1.69,3.13,3.26c0.98,1.01,2.04,2.15,2.34,2.46l-0.1-4.79
		c-0.01-0.62-0.07-0.83-0.37-0.89c-0.18-0.03-0.4-0.04-0.48-0.04c-0.07,0-0.08-0.06-0.08-0.09c0-0.06,0.08-0.07,0.19-0.07
		c0.45,0,0.92,0.02,1.04,0.02c0.11,0,0.44-0.02,0.84-0.02c0.1,0,0.18,0.01,0.18,0.07c0,0.03-0.04,0.09-0.11,0.09
		c-0.05,0-0.12,0-0.24,0.02c-0.33,0.07-0.35,0.26-0.35,0.83l-0.02,5.6c0,0.63-0.01,0.69-0.08,0.69c-0.1,0-0.2-0.08-0.75-0.58
		c-0.1-0.09-1.53-1.5-2.58-2.59c-1.15-1.2-2.26-2.37-2.57-2.71L108.35,27.47z"/>
</g>
</svg>
