<?xml version="1.0" encoding="utf-8"?>
<!-- Generator: Adobe Illustrator 24.1.2, SVG Export Plug-In . SVG Version: 6.00 Build 0)  -->
<svg version="1.1" xmlns="http://www.w3.org/2000/svg" xmlns:xlink="http://www.w3.org/1999/xlink" x="0px" y="0px"
	 viewBox="0 0 205 50" style="enable-background:new 0 0 205 50;" xml:space="preserve">
<style type="text/css">
	.st0{display:none;}
	.st1{display:inline;}
	.st2{fill:#1E2F36;}
	.st3{fill-rule:evenodd;clip-rule:evenodd;fill:#FCB316;}
</style>
<g id="Layer_1" class="st0">
	<g class="st1">
		<path class="st2" d="M43.3,15.2c-0.9,0-1.8,0.1-2.6,0.4c-0.8,0.2-1.6,0.6-2.4,1c-0.7,0.4-1.4,0.9-2,1.5c-0.6,0.6-1.1,1.3-1.5,2
			c-0.4,0.7-0.7,1.5-1,2.3c-0.2,0.8-0.3,1.7-0.3,2.5c0,0.9,0.1,1.8,0.4,2.6c0.2,0.8,0.6,1.6,1,2.3c0.4,0.7,0.9,1.4,1.5,2
			c0.6,0.6,1.3,1.1,2,1.5c0.7,0.4,1.5,0.8,2.3,1c0.8,0.2,1.7,0.3,2.6,0.3c1.2,0,2.2-0.2,3.2-0.5c1-0.4,1.8-0.8,2.5-1.3v-6.1
			c0-0.4,0.2-0.6,0.6-0.6h0.6c0.2,0,0.3,0,0.4,0.1s0.2,0.2,0.2,0.4v6.8c0,0.1,0,0.2-0.1,0.3c-0.1,0.1-0.2,0.2-0.3,0.3
			c-1,0.7-2.1,1.3-3.3,1.7c-1.2,0.4-2.5,0.7-3.8,0.7c-1.1,0-2.1-0.1-3.1-0.4c-1-0.3-1.9-0.7-2.8-1.2c-0.8-0.5-1.6-1.1-2.3-1.8
			c-0.7-0.7-1.3-1.5-1.8-2.3C32.9,30,32.5,29,32.2,28c-0.3-1-0.4-2-0.4-3.1c0-1.1,0.1-2.1,0.4-3.1c0.3-1,0.7-1.9,1.2-2.8
			c0.5-0.9,1.1-1.6,1.8-2.3c0.7-0.7,1.5-1.3,2.3-1.8c0.9-0.5,1.8-0.9,2.8-1.2c1-0.3,2-0.4,3.1-0.4c1.6,0,3,0.3,4.5,0.9
			c0.2,0.1,0.5,0.3,0.9,0.4c0.3,0.2,0.7,0.4,1,0.5c0.3,0.2,0.6,0.4,0.8,0.6c0.2,0.2,0.3,0.4,0.3,0.5c0,0.1,0,0.2-0.1,0.3l-0.4,0.5
			c-0.1,0.1-0.1,0.1-0.2,0.2c-0.1,0.1-0.1,0.1-0.2,0.1c-0.2,0-0.4-0.1-0.6-0.3c-0.9-0.6-1.8-1.1-2.8-1.5
			C45.4,15.4,44.4,15.2,43.3,15.2z"/>
		<path class="st2" d="M64.8,20.2c-0.1,0.1-0.1,0.1-0.2,0.1c-0.1,0-0.2,0-0.3-0.1c-0.1,0-0.2-0.1-0.4-0.2c-0.2-0.2-0.5-0.3-0.8-0.5
			c-0.3-0.2-0.6-0.3-0.9-0.4c-0.3-0.1-0.6-0.2-1-0.3c-0.3-0.1-0.6-0.1-1-0.1c-0.8,0-1.5,0.1-2.2,0.4c-0.7,0.3-1.3,0.7-1.8,1.2
			c-0.5,0.5-0.9,1.1-1.2,1.8c-0.3,0.7-0.4,1.5-0.4,2.4v11.3c0,0.3-0.2,0.5-0.5,0.5h-0.8c-0.3,0-0.5-0.2-0.5-0.5V17.5
			c0-0.3,0.1-0.4,0.4-0.4c0,0,0.1,0,0.1,0c0,0,0.1,0,0.1,0h0.6c0.2,0,0.3,0.1,0.4,0.2c0.1,0.1,0.1,0.2,0.1,0.4v2.5
			c0.2-0.4,0.5-0.8,0.8-1.2c0.3-0.4,0.7-0.7,1.2-1c0.5-0.3,1-0.6,1.6-0.8c0.6-0.2,1.2-0.3,1.8-0.3c0.5,0,1,0,1.5,0.1
			c0.4,0.1,0.9,0.2,1.3,0.3c0.4,0.1,0.8,0.3,1.2,0.5c0.4,0.2,0.7,0.5,1.1,0.8c0.1,0.1,0.2,0.2,0.3,0.3c0.1,0.1,0.1,0.2,0.1,0.3
			c0,0.1-0.1,0.2-0.3,0.4C65.2,19.8,65,20,64.8,20.2z"/>
		<path class="st2" d="M84.1,33.2l0-1.2c-0.4,0.7-0.9,1.3-1.5,1.9c-0.6,0.6-1.2,1-1.9,1.4c-0.7,0.4-1.4,0.7-2.2,0.9
			c-0.8,0.2-1.6,0.3-2.5,0.3c-0.9,0-1.8-0.1-2.6-0.4c-0.8-0.2-1.6-0.6-2.4-1c-0.7-0.4-1.4-1-2-1.6c-0.6-0.6-1.1-1.3-1.6-2
			c-0.4-0.7-0.8-1.5-1-2.4c-0.2-0.8-0.4-1.7-0.4-2.6c0-0.9,0.1-1.8,0.4-2.6c0.2-0.8,0.6-1.6,1-2.4c0.4-0.7,1-1.4,1.6-2
			c0.6-0.6,1.3-1.1,2-1.6c0.7-0.4,1.5-0.8,2.4-1c0.8-0.2,1.7-0.4,2.6-0.4c0.8,0,1.6,0.1,2.4,0.3c0.8,0.2,1.5,0.5,2.2,0.9
			c0.7,0.4,1.3,0.9,1.9,1.4c0.6,0.6,1.1,1.2,1.5,1.9v-1.1v-2.6c0-0.3,0.2-0.5,0.5-0.5h0.8c0.3,0,0.5,0.2,0.5,0.5v18.2
			c0,0.2-0.1,0.3-0.2,0.4c-0.1,0.1-0.2,0.1-0.4,0.1h-0.6c-0.4,0-0.6-0.2-0.6-0.5V33.2z M84.2,26.6c0-1.1-0.2-2.1-0.7-3.1
			c-0.4-1-1-1.9-1.8-2.6c-0.7-0.8-1.6-1.4-2.6-1.8c-1-0.4-2-0.7-3.1-0.7h0c-1.1,0-2.1,0.2-3.1,0.7c-1,0.4-1.8,1-2.6,1.8
			c-0.7,0.8-1.3,1.6-1.8,2.6c-0.4,1-0.7,2-0.7,3.1c0,1.1,0.2,2.2,0.6,3.2c0.4,1,1,1.9,1.7,2.7c0.7,0.8,1.6,1.4,2.6,1.8
			c1,0.4,2,0.7,3.1,0.7c1.1,0,2.2-0.2,3.2-0.7c1-0.4,1.9-1,2.6-1.8c0.7-0.8,1.3-1.6,1.8-2.6C84,28.8,84.2,27.8,84.2,26.6z"/>
		<path class="st2" d="M87.9,17.5c0-0.3,0.2-0.5,0.5-0.5h0.8c0.3,0,0.5,0.2,0.5,0.5v18.2c0,0.3-0.2,0.5-0.5,0.5h-0.8
			c-0.3,0-0.5-0.2-0.5-0.5V17.5z"/>
		<path class="st2" d="M93.1,17.6c0-0.2,0.1-0.3,0.2-0.4c0.1-0.1,0.2-0.1,0.4-0.1h0.6c0.2,0,0.3,0.1,0.4,0.2
			c0.1,0.1,0.1,0.2,0.1,0.4v2.2c0.4-0.7,0.9-1.2,1.5-1.6c0.5-0.4,1.1-0.7,1.7-1c0.6-0.2,1.1-0.4,1.7-0.5c0.6-0.1,1.1-0.1,1.6-0.1
			c1.2,0,2.2,0.2,3.2,0.6c1,0.4,1.8,1,2.5,1.7c0.7,0.7,1.2,1.6,1.6,2.6c0.4,1,0.6,2,0.6,3.1v10.8c0,0.2-0.1,0.4-0.2,0.5
			c-0.1,0.1-0.3,0.2-0.4,0.2h-0.6c-0.2,0-0.4-0.1-0.5-0.2c-0.1-0.1-0.1-0.3-0.1-0.5V24.7c0-0.8-0.2-1.6-0.5-2.3
			c-0.3-0.8-0.7-1.4-1.2-2c-0.5-0.6-1.1-1.1-1.9-1.4c-0.7-0.4-1.6-0.5-2.6-0.5c-0.8,0-1.5,0.1-2.3,0.4c-0.7,0.3-1.4,0.7-2,1.2
			c-0.6,0.5-1.1,1.1-1.4,1.9c-0.4,0.7-0.6,1.5-0.6,2.4v11.4c0,0.3-0.2,0.5-0.5,0.5h-0.8c-0.3,0-0.5-0.2-0.5-0.5v-4.2
			c0,0,0-0.1,0-0.2V17.6z"/>
		<path class="st2" d="M117.9,35.8c-0.1-0.2-0.2-0.4-0.3-0.6s-0.2-0.4-0.3-0.7l-8-19.9c0,0,0-0.1,0-0.1c0-0.1,0-0.1,0-0.2
			c0-0.3,0.2-0.5,0.6-0.5h3.2c0.4,0,0.6,0.2,0.8,0.6c0.2,0.6,0.5,1.4,0.8,2.2c0.3,0.9,0.7,1.8,1,2.7c0.4,1,0.7,1.9,1.1,2.9
			c0.4,1,0.7,2,1.1,2.9c0.4,0.9,0.7,1.8,1,2.6c0.3,0.8,0.6,1.5,0.8,2.1c0.2-0.6,0.5-1.3,0.8-2.1c0.3-0.8,0.6-1.7,1-2.6
			c0.3-0.9,0.7-1.9,1.1-2.9c0.4-1,0.7-2,1.1-2.9c0.4-1,0.7-1.9,1-2.7c0.3-0.9,0.6-1.6,0.8-2.2c0.1-0.4,0.4-0.6,0.8-0.6h3.2
			c0.5,0,0.7,0.2,0.7,0.5c0,0.1,0,0.1,0,0.2s0,0.1,0,0.1l-7.9,19.9c-0.1,0.2-0.2,0.4-0.2,0.6c-0.1,0.2-0.2,0.4-0.3,0.6
			c-0.1,0.3-0.3,0.4-0.6,0.5c-0.2,0.1-0.5,0.1-0.8,0.1h-1.7c-0.2,0-0.4,0-0.5-0.1S117.9,35.9,117.9,35.8z"/>
		<path class="st2" d="M130.7,17.9c0-0.3,0.1-0.5,0.2-0.7c0.2-0.2,0.4-0.3,0.7-0.3h2.5c0.1,0,0.2,0,0.3,0.1c0.1,0,0.2,0.1,0.3,0.2
			c0.1,0.1,0.2,0.2,0.2,0.3c0.1,0.1,0.1,0.2,0.1,0.4v17.4c0,0.6-0.3,0.9-1,0.9h-2.5c-0.6,0-0.9-0.3-0.9-0.9V17.9z"/>
		<path class="st2" d="M139.8,30.8c0.2,0.3,0.5,0.6,0.8,0.9c0.3,0.2,0.7,0.4,1,0.6c0.3,0.2,0.7,0.3,1,0.3s0.6,0.1,0.7,0.1
			c0.3,0,0.6,0,1-0.1c0.4-0.1,0.7-0.2,1.1-0.3c0.3-0.2,0.6-0.4,0.9-0.6c0.2-0.3,0.4-0.6,0.4-1c0-0.4-0.1-0.7-0.3-1
			c-0.2-0.3-0.4-0.5-0.8-0.6c-0.3-0.2-0.7-0.3-1.1-0.4c-0.4-0.1-0.8-0.2-1.3-0.4c-1.1-0.3-2-0.6-2.7-1c-0.7-0.4-1.4-0.9-1.8-1.4
			c-0.5-0.5-0.8-1.1-1.1-1.7c-0.2-0.6-0.3-1.3-0.3-2c0-0.8,0.2-1.6,0.5-2.2c0.3-0.7,0.8-1.3,1.4-1.7c0.6-0.5,1.3-0.9,2.1-1.1
			c0.8-0.3,1.7-0.4,2.7-0.4c0.7,0,1.3,0.1,1.9,0.2s1.1,0.3,1.5,0.6s0.9,0.6,1.3,1c0.4,0.4,0.8,0.8,1.3,1.4c0.2,0.2,0.2,0.4,0.2,0.5
			c0,0.2-0.1,0.4-0.3,0.5c-0.2,0.1-0.3,0.3-0.5,0.5c-0.2,0.2-0.4,0.4-0.6,0.5c-0.2,0.2-0.4,0.3-0.6,0.4s-0.3,0.2-0.5,0.2
			c-0.2,0-0.4-0.1-0.7-0.4c-0.2-0.3-0.4-0.5-0.7-0.7c-0.2-0.2-0.5-0.4-0.7-0.5c-0.2-0.1-0.5-0.2-0.8-0.3c-0.3-0.1-0.6-0.1-0.9-0.1
			c-0.3,0-0.6,0-0.9,0.1c-0.3,0.1-0.6,0.2-0.8,0.4c-0.2,0.2-0.5,0.4-0.6,0.6c-0.2,0.2-0.3,0.5-0.3,0.8c0,0.3,0.1,0.6,0.3,0.8
			c0.2,0.2,0.5,0.4,0.8,0.6s0.7,0.3,1,0.4c0.4,0.1,0.7,0.2,1,0.3c0.9,0.3,1.8,0.6,2.6,0.9s1.4,0.8,2,1.3c0.6,0.5,1,1.1,1.3,1.7
			c0.3,0.7,0.5,1.4,0.5,2.3c0,0.9-0.2,1.8-0.6,2.5c-0.4,0.7-0.9,1.4-1.5,1.9c-0.7,0.5-1.4,0.9-2.3,1.2c-0.9,0.3-1.9,0.4-2.9,0.4
			c-0.6,0-1.3-0.1-1.9-0.2c-0.7-0.1-1.3-0.3-1.9-0.6c-0.6-0.3-1.2-0.7-1.7-1.1c-0.5-0.4-0.9-1-1.3-1.6c-0.2-0.3-0.2-0.5-0.2-0.7
			c0-0.1,0-0.2,0.1-0.3c0.1-0.1,0.2-0.2,0.3-0.3l1.7-1.3c0.2-0.1,0.3-0.1,0.4-0.1c0.1,0,0.3,0,0.4,0.1
			C139.5,30.5,139.7,30.6,139.8,30.8z"/>
		<path class="st2" d="M152.2,17.9c0-0.3,0.1-0.5,0.2-0.7c0.2-0.2,0.4-0.3,0.7-0.3h2.5c0.1,0,0.2,0,0.3,0.1c0.1,0,0.2,0.1,0.3,0.2
			c0.1,0.1,0.2,0.2,0.2,0.3c0.1,0.1,0.1,0.2,0.1,0.4v17.4c0,0.6-0.3,0.9-1,0.9h-2.5c-0.6,0-0.9-0.3-0.9-0.9V17.9z"/>
		<path class="st2" d="M158.5,26.6c0-0.9,0.1-1.8,0.4-2.7c0.2-0.9,0.6-1.7,1-2.4c0.4-0.7,1-1.4,1.6-2c0.6-0.6,1.3-1.1,2-1.5
			c0.7-0.4,1.5-0.8,2.4-1c0.8-0.2,1.7-0.4,2.6-0.4c0.9,0,1.8,0.1,2.6,0.4c0.8,0.2,1.6,0.6,2.4,1c0.7,0.4,1.4,0.9,2,1.5
			s1.1,1.3,1.6,2c0.4,0.7,0.8,1.5,1,2.4c0.2,0.9,0.4,1.7,0.4,2.7c0,0.9-0.1,1.8-0.4,2.7c-0.2,0.8-0.6,1.6-1,2.4
			c-0.4,0.7-1,1.4-1.6,2s-1.3,1.1-2,1.6c-0.7,0.4-1.5,0.8-2.4,1s-1.7,0.4-2.6,0.4c-0.9,0-1.8-0.1-2.6-0.4c-0.8-0.2-1.6-0.6-2.4-1
			c-0.7-0.4-1.4-0.9-2-1.6c-0.6-0.6-1.1-1.3-1.6-2c-0.4-0.7-0.8-1.5-1-2.4C158.6,28.4,158.5,27.5,158.5,26.6z M162.8,26.6
			c0,0.8,0.1,1.6,0.4,2.3c0.3,0.7,0.7,1.4,1.2,1.9c0.5,0.5,1.1,1,1.8,1.3c0.7,0.3,1.4,0.5,2.3,0.5c0.8,0,1.5-0.2,2.2-0.5
			c0.7-0.3,1.3-0.7,1.8-1.3c0.5-0.5,0.9-1.2,1.2-1.9c0.3-0.7,0.4-1.5,0.4-2.3c0-0.8-0.1-1.6-0.4-2.3c-0.3-0.7-0.7-1.4-1.2-1.9
			c-0.5-0.6-1.1-1-1.8-1.3c-0.7-0.3-1.4-0.5-2.2-0.5c-0.8,0-1.6,0.2-2.3,0.5c-0.7,0.3-1.3,0.8-1.8,1.3c-0.5,0.6-0.9,1.2-1.2,1.9
			C162.9,25.1,162.8,25.8,162.8,26.6z"/>
		<path class="st2" d="M179.8,17.4c0.1-0.2,0.2-0.3,0.3-0.3c0.1-0.1,0.2-0.1,0.4-0.1c0.2,0,0.3,0,0.5,0h1.5c0.3,0,0.5,0.1,0.7,0.3
			c0.1,0.2,0.2,0.4,0.3,0.6l0.2,1.6c0.2-0.3,0.5-0.7,0.9-1c0.3-0.3,0.7-0.6,1.2-0.9c0.5-0.3,1-0.5,1.6-0.6c0.6-0.2,1.3-0.2,2-0.2
			c1.2,0,2.3,0.2,3.2,0.6c0.9,0.4,1.7,1,2.4,1.8c0.6,0.7,1.1,1.6,1.4,2.6c0.3,1,0.5,2.1,0.5,3.3v10.1c0,0.4-0.1,0.6-0.3,0.8
			c-0.2,0.2-0.4,0.3-0.7,0.3h-2.3c-0.4,0-0.7-0.1-0.8-0.2c-0.1-0.2-0.2-0.4-0.2-0.8V25.1c0-0.5-0.1-1.1-0.3-1.6
			c-0.2-0.5-0.4-1-0.8-1.4c-0.3-0.4-0.8-0.7-1.3-1c-0.5-0.2-1.1-0.4-1.8-0.4c-0.5,0-0.9,0.1-1.4,0.3c-0.5,0.2-1,0.5-1.4,0.8
			c-0.4,0.3-0.8,0.8-1,1.3c-0.3,0.5-0.4,1-0.4,1.7v9.8c0,0.2,0,0.4,0,0.6c0,0.2-0.1,0.4-0.1,0.5c-0.1,0.2-0.2,0.3-0.3,0.4
			c-0.1,0.1-0.3,0.1-0.5,0.1h-2.5c-0.3,0-0.6-0.1-0.7-0.2c-0.2-0.2-0.2-0.4-0.2-0.7V17.8C179.7,17.7,179.7,17.6,179.8,17.4z"/>
	</g>
</g>
<g id="Layer_3">
	<g>
		<g>
			<path class="st2" d="M46.7,29.3c0-1.9-0.1-2.2-1.1-2.4c-0.2,0-0.6-0.1-0.8-0.1c-0.1,0-0.2,0-0.2-0.1c0-0.1,0.1-0.2,0.4-0.2
				c1.1,0,2.6,0.1,2.7,0.1c0.1,0,1.6-0.1,2.3-0.1c0.3,0,0.4,0,0.4,0.2c0,0.1-0.1,0.1-0.2,0.1c-0.2,0-0.3,0-0.6,0.1
				c-0.6,0.1-0.8,0.5-0.9,1.4c0,0.8,0,1.5,0,2.5v2.7c0,1.1,0,1.1-0.3,1.3c-1.5,0.8-3.7,1.1-5,1.1c-1.8,0-5.2-0.2-7.8-2.5
				c-1.4-1.3-2.8-3.8-2.8-6.8c0-3.8,1.9-6.5,4-7.8c2.1-1.3,4.5-1.5,6.3-1.5c1.5,0,3.2,0.3,3.6,0.4c0.5,0.1,1.3,0.2,1.9,0.2
				c0.2,0,0.3,0.1,0.3,0.2c0,0.3-0.2,1-0.2,3.4c0,0.4,0,0.5-0.2,0.5c-0.1,0-0.1-0.1-0.2-0.4c0-0.3-0.1-1-0.5-1.6
				C47.2,19,45.3,18,42.3,18c-1.5,0-3.3,0.1-5.1,1.6c-1.4,1.1-2.4,3.3-2.4,6c0,3.3,1.7,5.8,2.5,6.6c1.9,1.8,4,2.5,6.2,2.5
				c0.9,0,2.1-0.1,2.7-0.5c0.3-0.2,0.5-0.4,0.5-0.8V29.3z"/>
			<path class="st2" d="M56,25.9c0-3.1,0-3.7,0-4.3c0-0.7-0.2-1-0.9-1.1c-0.2,0-0.5,0-0.7,0c-0.1,0-0.2-0.1-0.2-0.2
				c0-0.1,0.1-0.2,0.3-0.2c1,0,2.4,0,2.5,0c0.2,0,2,0,2.6,0c1.3,0,2.8,0.1,3.9,0.9c0.5,0.4,1.4,1.4,1.4,2.8c0,1.5-0.6,2.9-2.6,4.6
				c1.7,2.1,3.2,4,4.4,5.2c1.1,1.1,1.8,1.3,2.3,1.4c0.4,0.1,0.6,0.1,0.7,0.1c0.1,0,0.2,0.1,0.2,0.2c0,0.1-0.1,0.2-0.5,0.2h-1.3
				c-1.2,0-1.7-0.1-2.2-0.4c-0.9-0.5-1.7-1.4-2.9-3c-0.9-1.1-1.8-2.4-2.3-2.9c-0.1-0.1-0.1-0.1-0.3-0.1l-2.7,0c-0.1,0-0.1,0-0.1,0.2
				v0.5c0,1.9,0,3.5,0.1,4.3c0.1,0.6,0.2,1,0.8,1.1c0.3,0,0.7,0.1,0.9,0.1c0.1,0,0.2,0.1,0.2,0.2c0,0.1-0.1,0.2-0.3,0.2
				c-1.1,0-2.5-0.1-2.6-0.1c0,0-1.4,0.1-2.1,0.1c-0.2,0-0.3,0-0.3-0.2c0-0.1,0-0.2,0.2-0.2c0.2,0,0.5,0,0.6-0.1
				c0.4-0.1,0.5-0.5,0.5-1.1C56,33,56,31.5,56,29.5V25.9z M57.8,27.6c0,0.1,0,0.2,0.1,0.3c0.3,0.2,1.4,0.3,2.3,0.3
				c0.5,0,1.1,0,1.6-0.4c0.7-0.5,1.3-1.5,1.3-3.1c0-2.5-1.4-4-3.6-4c-0.6,0-1.3,0.1-1.5,0.1c-0.1,0-0.2,0.1-0.2,0.2V27.6z"/>
			<path class="st2" d="M75.9,20.5c0.3-0.7,0.4-0.8,0.5-0.8c0.2,0,0.3,0.3,0.5,0.7c0.4,0.9,3.7,9.2,5,12.3c0.8,1.8,1.3,2.1,1.8,2.2
				C84,35,84.3,35,84.5,35c0.1,0,0.3,0,0.3,0.2c0,0.1-0.2,0.2-0.5,0.2c-0.3,0-1.9,0-3.3,0c-0.4,0-0.7,0-0.7-0.1c0-0.1,0-0.1,0.1-0.1
				c0.1,0,0.3-0.2,0.2-0.5l-1.9-4.6c0-0.1-0.1-0.1-0.2-0.1h-4.8c-0.1,0-0.2,0-0.2,0.2l-1.2,3.2c-0.2,0.5-0.3,1-0.3,1.4
				c0,0.4,0.4,0.5,0.7,0.5h0.2c0.2,0,0.2,0.1,0.2,0.2c0,0.1-0.1,0.2-0.3,0.2c-0.5,0-1.6-0.1-1.9-0.1c-0.2,0-1.3,0.1-2.1,0.1
				c-0.3,0-0.4,0-0.4-0.2c0-0.1,0.1-0.2,0.2-0.2c0.1,0,0.5,0,0.6,0c1-0.1,1.4-0.8,1.8-1.9L75.9,20.5z M78.2,28.9
				c0.1,0,0.1,0,0.1-0.1l-2.1-5.5c-0.1-0.3-0.2-0.3-0.4,0l-1.9,5.5c0,0.1,0,0.1,0.1,0.1H78.2z"/>
			<path class="st2" d="M90,29.5c0,1.9,0,3.5,0.1,4.4c0.1,0.6,0.1,1,0.8,1.1c0.3,0,0.8,0.1,1,0.1c0.1,0,0.2,0.1,0.2,0.2
				c0,0.1-0.1,0.2-0.3,0.2c-1.2,0-2.5-0.1-2.6-0.1c-0.1,0-1.4,0.1-2.1,0.1c-0.2,0-0.3,0-0.3-0.2c0-0.1,0-0.2,0.2-0.2
				c0.2,0,0.5,0,0.6-0.1c0.4-0.1,0.5-0.5,0.5-1.1c0.1-0.8,0.1-2.4,0.1-4.4v-3.6c0-3.1,0-3.7,0-4.3c0-0.7-0.2-1-0.7-1.1
				c-0.2,0-0.5-0.1-0.6-0.1c-0.1,0-0.2-0.1-0.2-0.2c0-0.1,0.1-0.2,0.3-0.2c0.7,0,2,0,2.1,0c0.1,0,1.4,0,2.1,0c0.2,0,0.3,0,0.3,0.2
				c0,0.1-0.1,0.2-0.2,0.2c-0.1,0-0.3,0-0.5,0c-0.6,0.1-0.7,0.4-0.7,1.1c0,0.6,0,1.2,0,4.3V29.5z"/>
			<path class="st2" d="M98.3,32.6c0,1.7,0.2,2.2,0.8,2.3c0.4,0.1,0.9,0.1,1,0.1c0.1,0,0.2,0.1,0.2,0.2c0,0.1-0.1,0.2-0.4,0.2
				c-1.2,0-2-0.1-2.2-0.1s-1.1,0.1-2,0.1c-0.2,0-0.3,0-0.3-0.2c0-0.1,0.1-0.2,0.2-0.2c0.2,0,0.5,0,0.9-0.1c0.5-0.1,0.6-0.7,0.6-2.5
				V20.8c0-0.8,0.1-1,0.3-1c0.2,0,0.6,0.4,0.8,0.6c0.3,0.3,3.4,3.6,6.6,6.9c2.1,2.1,4.3,4.5,4.9,5.2l-0.2-10.1
				c0-1.3-0.1-1.8-0.8-1.9c-0.4-0.1-0.9-0.1-1-0.1c-0.1,0-0.2-0.1-0.2-0.2c0-0.1,0.2-0.1,0.4-0.1c1,0,1.9,0,2.2,0c0.2,0,0.9,0,1.8,0
				c0.2,0,0.4,0,0.4,0.1c0,0.1-0.1,0.2-0.2,0.2c-0.1,0-0.3,0-0.5,0c-0.7,0.1-0.7,0.5-0.7,1.8l0,11.8c0,1.3,0,1.4-0.2,1.4
				c-0.2,0-0.4-0.2-1.6-1.2c-0.2-0.2-3.2-3.2-5.4-5.5c-2.4-2.5-4.8-5-5.4-5.7L98.3,32.6z"/>
			<path class="st2" d="M123.6,32.5c1.4-3.2,4.6-11.5,5.1-13.2c0.1-0.4,0.2-0.7,0.2-0.9c0-0.2-0.1-0.4-0.3-0.5
				c-0.3-0.1-0.6-0.1-0.9-0.1c-0.1,0-0.3,0-0.3-0.1c0-0.1,0.1-0.2,0.5-0.2c1,0,2,0.1,2.3,0.1c0.1,0,1.2-0.1,1.9-0.1
				c0.3,0,0.4,0,0.4,0.2c0,0.1-0.1,0.2-0.3,0.2c-0.2,0-0.7,0-1.1,0.3c-0.3,0.2-0.7,0.6-1.3,2.2c-0.3,0.7-1.4,3.5-2.7,6.4
				c-1.4,3.5-2.5,6-3.1,7.2c-0.7,1.4-0.8,1.8-1,1.8c-0.3,0-0.4-0.3-0.9-1.5l-5.8-14.6c-0.5-1.3-0.9-1.6-1.7-1.8
				c-0.4-0.1-0.8-0.1-0.9-0.1s-0.2-0.1-0.2-0.2c0-0.1,0.2-0.2,0.6-0.2c1.1,0,2.5,0.1,2.8,0.1c0.2,0,1.3-0.1,2.2-0.1
				c0.4,0,0.6,0,0.6,0.2c0,0.1-0.1,0.2-0.2,0.2c-0.3,0-0.7,0-0.9,0.1c-0.3,0.1-0.3,0.3-0.3,0.5c0,0.3,0.3,1,0.6,2L123.6,32.5z"/>
			<path class="st2" d="M138,29.5c0,1.9,0,3.5,0.1,4.4c0.1,0.6,0.1,1,0.8,1.1c0.3,0,0.8,0.1,1,0.1c0.1,0,0.2,0.1,0.2,0.2
				c0,0.1-0.1,0.2-0.3,0.2c-1.2,0-2.5-0.1-2.6-0.1c-0.1,0-1.4,0.1-2.1,0.1c-0.2,0-0.3,0-0.3-0.2c0-0.1,0-0.2,0.2-0.2
				c0.2,0,0.5,0,0.6-0.1c0.4-0.1,0.5-0.5,0.5-1.1c0.1-0.8,0.1-2.4,0.1-4.4v-3.6c0-3.1,0-3.7,0-4.3c0-0.7-0.2-1-0.7-1.1
				c-0.2,0-0.5-0.1-0.6-0.1c-0.1,0-0.2-0.1-0.2-0.2c0-0.1,0.1-0.2,0.3-0.2c0.7,0,2,0,2.1,0c0.1,0,1.4,0,2.1,0c0.2,0,0.3,0,0.3,0.2
				c0,0.1-0.1,0.2-0.2,0.2c-0.1,0-0.3,0-0.5,0c-0.6,0.1-0.7,0.4-0.7,1.1c0,0.6,0,1.2,0,4.3V29.5z"/>
			<path class="st2" d="M144.2,35.1c-0.3-0.1-0.3-0.2-0.3-0.8c0-1,0.1-1.8,0.1-2.1c0-0.2,0-0.3,0.2-0.3s0.2,0.1,0.2,0.2
				c0,0.2,0,0.5,0.1,0.7c0.3,1.5,1.9,2,3.3,2c2.1,0,3.1-1.2,3.1-2.7c0-1.4-0.8-2.1-2.6-3.5l-1-0.7c-2.3-1.7-3-2.9-3-4.3
				c0-2.4,1.9-3.8,4.6-3.8c0.8,0,1.7,0.1,2.2,0.2c0.4,0.1,0.6,0.1,0.7,0.1s0.2,0,0.2,0.1c0,0.1-0.1,0.8-0.1,2.1c0,0.3,0,0.5-0.2,0.5
				s-0.2-0.1-0.2-0.3c0-0.2-0.2-0.8-0.3-1c-0.1-0.2-0.8-1-2.7-1c-1.5,0-2.8,0.8-2.8,2.2c0,1.3,0.6,2,2.7,3.4l0.6,0.4
				c2.5,1.7,3.4,3.1,3.4,4.9c0,1.2-0.5,2.5-1.9,3.4c-0.9,0.6-2.2,0.7-3.3,0.7C146.2,35.6,145,35.5,144.2,35.1z"/>
			<path class="st2" d="M160.4,29.5c0,1.9,0,3.5,0.1,4.4c0.1,0.6,0.1,1,0.8,1.1c0.3,0,0.8,0.1,1,0.1c0.1,0,0.2,0.1,0.2,0.2
				c0,0.1-0.1,0.2-0.3,0.2c-1.2,0-2.5-0.1-2.6-0.1c-0.1,0-1.4,0.1-2.1,0.1c-0.2,0-0.3,0-0.3-0.2c0-0.1,0-0.2,0.2-0.2
				c0.2,0,0.5,0,0.6-0.1c0.4-0.1,0.5-0.5,0.5-1.1c0.1-0.8,0.1-2.4,0.1-4.4v-3.6c0-3.1,0-3.7,0-4.3c0-0.7-0.2-1-0.7-1.1
				c-0.2,0-0.5-0.1-0.6-0.1c-0.1,0-0.2-0.1-0.2-0.2c0-0.1,0.1-0.2,0.3-0.2c0.7,0,2,0,2.1,0c0.1,0,1.4,0,2.1,0c0.2,0,0.3,0,0.3,0.2
				c0,0.1-0.1,0.2-0.2,0.2c-0.1,0-0.3,0-0.5,0c-0.6,0.1-0.7,0.4-0.7,1.1c0,0.6,0,1.2,0,4.3V29.5z"/>
			<path class="st2" d="M173.9,19.8c4.7,0,8.3,2.9,8.3,7.6c0,4.5-3.4,8.2-8.4,8.2c-5.7,0-8.2-4.3-8.2-7.9
				C165.6,24.4,168.2,19.8,173.9,19.8z M174.4,34.8c1.9,0,5.7-1,5.7-6.8c0-4.8-2.9-7.4-6.2-7.4c-3.5,0-6,2.2-6,6.6
				C167.8,31.9,170.6,34.8,174.4,34.8z"/>
			<path class="st2" d="M188.1,32.6c0,1.7,0.2,2.2,0.8,2.3c0.4,0.1,0.9,0.1,1,0.1c0.1,0,0.2,0.1,0.2,0.2c0,0.1-0.1,0.2-0.4,0.2
				c-1.2,0-2-0.1-2.2-0.1s-1.1,0.1-2,0.1c-0.2,0-0.3,0-0.3-0.2c0-0.1,0.1-0.2,0.2-0.2c0.2,0,0.5,0,0.9-0.1c0.5-0.1,0.6-0.7,0.6-2.5
				V20.8c0-0.8,0.1-1,0.3-1c0.2,0,0.6,0.4,0.8,0.6c0.3,0.3,3.4,3.6,6.6,6.9c2.1,2.1,4.3,4.5,4.9,5.2l-0.2-10.1
				c0-1.3-0.1-1.8-0.8-1.9c-0.4-0.1-0.9-0.1-1-0.1c-0.1,0-0.2-0.1-0.2-0.2c0-0.1,0.2-0.1,0.4-0.1c1,0,1.9,0,2.2,0c0.2,0,0.9,0,1.8,0
				c0.2,0,0.4,0,0.4,0.1c0,0.1-0.1,0.2-0.2,0.2c-0.1,0-0.3,0-0.5,0c-0.7,0.1-0.7,0.5-0.7,1.8l0,11.8c0,1.3,0,1.4-0.2,1.4
				c-0.2,0-0.4-0.2-1.6-1.2c-0.2-0.2-3.2-3.2-5.4-5.5c-2.4-2.5-4.8-5-5.4-5.7L188.1,32.6z"/>
		</g>
	</g>
</g>
<g id="Layer_2">
	<g>
		<path class="st3" d="M25.2,24.7c-1.5-6.6-6.4-13.8-13.8-20C17.2,14.8,3.4,21,3,30.1c0-0.1,0-0.1,0.1-0.2c1.8-4.7,7-7,11.7-5.2
			c4.7,1.8,7,7,5.2,11.7c-0.3,0.9-0.8,1.6-1.3,2.3C23.1,36.2,26.5,31.7,25.2,24.7z"/>
		<path class="st3" d="M11.8,26.4c-0.8,0-1.5,0-2.2,0.2c0.8,0.4,1.3,1.2,1.3,2.2c-0.1,1.3-1.1,2.2-2.4,2.1c-1.2-0.1-2.1-1.1-2.1-2.2
			c-1,1.1-1.6,2.5-1.7,4.1c-0.2,3.7,2.6,6.9,6.4,7.2c3.7,0.2,6.9-2.6,7.2-6.4C18.4,29.8,15.6,26.6,11.8,26.4z"/>
	</g>
</g>
</svg>
